<?xml version="1.0" encoding="utf-8"?>
<!-- Generator: Adobe Illustrator 25.4.1, SVG Export Plug-In . SVG Version: 6.00 Build 0)  -->
<svg version="1.0" id="katman_1" xmlns="http://www.w3.org/2000/svg" xmlns:xlink="http://www.w3.org/1999/xlink" x="0px" y="0px"
	 viewBox="0 0 183 125.3" style="enable-background:new 0 0 183 125.3;" xml:space="preserve">
<style type="text/css">
	.st0{fill:#D5152C;}
	.st1{fill:#2B2A29;}
	.st2{fill:#E5B582;}
	.st3{fill:#FEFEFE;}
	.st4{fill:#857040;}
</style>
<g id="Layer_x0020_1">
	<g id="_2380226831760">
		<polygon class="st0" points="118,114.7 63.5,114.7 63.5,113.2 118,113.2 		"/>
		<path class="st1" d="M118,72.7v40.6H63.5V73.1c3.1,12.1,14.1,21.1,27.2,21.1C104,94.2,115.1,85,118,72.7L118,72.7z"/>
		<path class="st2" d="M63.5,73.1c2.3,1.8,5.2,2.5,8.1,2.5l0,0c0.3,0,0.6,0,0.9,0c3.4,6.6,10.3,11.1,18.2,11.1
			c9.6,0,17.7-6.6,19.9-15.5c0.7,0.3,1.4,0.3,1.9,0.3c0.7,0,1.3-0.1,1.9-0.3c0.9,1,2.2,1.6,3.7,1.4c-2.9,12.4-14,21.6-27.3,21.6
			C77.6,94.2,66.6,85.2,63.5,73.1L63.5,73.1z"/>
		<path class="st1" d="M107.1,82.5l1.3-1.4l0.4,0.4l-0.9,0.9l0.3,0.3l0.8-0.9l0.4,0.4l-0.8,0.9l0.3,0.3l0.9-1l0.4,0.4l-1.4,1.4
			L107.1,82.5z M105,85.7c0.2-0.1,0.2-0.3,0.1-0.5l0,0c-0.1-0.2-0.3-0.1-0.5,0l-0.4,0.3l0.3,0.5L105,85.7z M103.4,85.4l0.9-0.7
			c0.3-0.2,0.6-0.3,0.8-0.3c0.2,0,0.4,0.1,0.5,0.3l0,0c0.2,0.3,0.2,0.6,0,0.9l1,0.3l-0.6,0.5l-0.8-0.3l-0.3,0.2l0.4,0.6l-0.5,0.4
			L103.4,85.4L103.4,85.4z M101.1,88.1L101.1,88.1c-0.1-0.3-0.5-0.5-0.8-0.3c-0.3,0.1-0.5,0.5-0.3,0.9l0,0c0.1,0.3,0.5,0.5,0.9,0.3
			C101.2,88.8,101.3,88.4,101.1,88.1L101.1,88.1z M99.4,88.9L99.4,88.9c-0.3-0.7,0-1.4,0.7-1.7c0.7-0.3,1.4,0,1.7,0.6l0,0
			c0.3,0.7,0,1.4-0.7,1.7C100.4,89.8,99.7,89.5,99.4,88.9z M95,88.8l0.7-0.1l0.4,1.8l1.2-0.3l0.1,0.6l-1.8,0.4L95,88.8L95,88.8z
			 M91.5,90.6l-0.3-0.7L91,90.6H91.5z M90.9,89.1h0.7l1.1,2.4h-0.7l-0.2-0.4l-0.9,0l-0.2,0.5l-0.7,0L90.9,89.1L90.9,89.1z M85,89.7
			L85,89.7c0.1-0.7,0.8-1.1,1.5-1c0.4,0.1,0.7,0.3,0.9,0.5l-0.5,0.4c-0.1-0.2-0.3-0.3-0.5-0.3c-0.3-0.1-0.7,0.2-0.7,0.5l0,0
			c-0.1,0.4,0.1,0.7,0.5,0.8c0.2,0,0.3,0,0.4,0l0.1-0.3l-0.5-0.1l0.1-0.5l1.1,0.2l-0.2,1.1c-0.3,0.2-0.7,0.3-1.1,0.2
			C85.3,91.1,84.9,90.5,85,89.7L85,89.7z M80.7,86.9l0.6,0.3l0.4,1.6l0.5-1.2l0.6,0.3L81.9,90l-0.5-0.2l-0.5-1.6l-0.5,1.2l-0.6-0.3
			L80.7,86.9L80.7,86.9z M76.9,86.3l0.2-0.7L76.4,86L76.9,86.3z M77.2,84.8l0.5,0.4l-0.6,2.6l-0.6-0.4l0.1-0.5L76,86.3l-0.4,0.3
			L75,86.2L77.2,84.8z M73.6,82.6c0.1-0.1,0.1-0.2-0.1-0.4l-0.3-0.3l-0.3,0.3l0.3,0.3C73.4,82.7,73.5,82.7,73.6,82.6L73.6,82.6
			L73.6,82.6z M73,82.9l-0.3-0.4l-0.3,0.3l0.4,0.4c0.1,0.1,0.3,0.2,0.4,0.1l0,0C73.1,83.3,73.1,83.1,73,82.9z M73.2,81.1l0.9,0.9
			c0.2,0.2,0.3,0.4,0.3,0.6c0,0.1-0.1,0.3-0.2,0.4l0,0c-0.2,0.2-0.4,0.2-0.7,0.1c0.1,0.3,0.1,0.5-0.1,0.8l0,0
			c-0.3,0.3-0.7,0.2-1.1-0.2l-0.9-0.9L73.2,81.1L73.2,81.1z"/>
		<path class="st3" d="M114.2,106.1c0.5,0.2,0.9,0.5,0.9,1.2c0,0.8-0.8,1.4-1.9,1.4c-0.7,0-1.1-0.2-1.3-0.3l-0.3,0.3h-0.1l0-1.7h0.1
			c0.5,1,1,1.5,1.6,1.5c0.7,0,0.9-0.3,0.9-0.7s-0.2-0.6-0.8-0.9c-0.3-0.1-0.5-0.2-0.7-0.3c-0.5-0.2-0.9-0.7-0.9-1.3
			c0-0.9,0.8-1.4,1.7-1.4c0.5,0,1,0.2,1.2,0.3l0.2-0.3h0.1l0,1.6h-0.1c-0.3-0.8-0.7-1.4-1.4-1.4c-0.5,0-0.8,0.3-0.8,0.7
			c0,0.5,0.3,0.7,0.8,0.9C113.7,106,114,106,114.2,106.1z M108.1,104.6h0.5c0.7,0,0.7,0.4,0.7,0.7c0,0.6-0.6,0.6-1.2,1V104.6z
			 M108.6,108.6h-0.1c-0.3,0-0.5-0.1-0.5-0.5v-1.2c0-0.3,0.2-0.5,0.5-0.6c0.7,0,0,2.5,1.9,2.5c0.3,0,0.6-0.1,0.8-0.2l0-0.2
			c-0.1,0-0.1,0-0.2,0c-1.4,0-0.5-2.2-1.9-2.4c0.7-0.3,1.1-0.5,1.1-0.9c0-0.4-0.1-1-1.3-1h-2.5v0.1h0.1c0.3,0,0.5,0.1,0.5,0.2v3.3
			c0,0.7-0.2,0.7-0.5,0.7h-0.1v0.1h2.2L108.6,108.6L108.6,108.6z M95.9,104.2h1.7v0.1h-0.1c-0.3,0-0.5,0.1-0.5,0.5v3.9h-0.2l-3-3.7
			v3.1c0,0.4,0.3,0.5,0.5,0.5h0.1v0.1h-1.7v-0.1h0.1c0.3,0,0.5-0.1,0.5-0.5v-3.6c-0.1-0.1-0.3-0.2-0.5-0.2h-0.1v-0.1h1.8l2,2.5v-1.9
			c0-0.4-0.3-0.5-0.5-0.5h-0.1L95.9,104.2L95.9,104.2z M100.2,106.4h2v0.1h0c-0.3,0-0.5,0.1-0.5,0.5v1.4c0,0-0.8,0.5-1.8,0.5
			c-1.2,0-2.3-0.9-2.3-2.4s1.1-2.4,2.2-2.4c0.6,0,1,0.3,1.3,0.3s0.2-0.3,0.2-0.3l0.1,0l0.3,1.4l-0.1,0c0,0-0.6-1.1-1.6-1.1
			c-0.8,0-1.3,0.5-1.3,2c0,1.4,0.7,2,1.4,2c0.2,0,0.5-0.1,0.6-0.1V107C100.8,106.6,100.6,106.5,100.2,106.4L100.2,106.4L100.2,106.4
			L100.2,106.4z M106.4,107.4l-0.6,1.3h-3.4v-0.1h0.1c0.3,0,0.5-0.1,0.5-0.5v-3.3c0-0.4-0.2-0.5-0.5-0.5h-0.1v-0.1h3.2l0.4,1.1
			l-0.1,0.1c0,0-0.5-0.8-1.4-0.8H104v1.7h0.7c0.4,0,0.6-0.3,0.6-0.6v-0.1h0.1v1.6h-0.1v-0.1c0-0.3-0.2-0.6-0.6-0.6H104v1.8h0.7
			C105.6,108.3,106.3,107.3,106.4,107.4L106.4,107.4L106.4,107.4z M92.5,107.3l0.1,0.1l-0.6,1.3h-3.4v-0.1h0.1
			c0.3,0,0.5-0.1,0.5-0.5v-3.3c0-0.4-0.2-0.5-0.5-0.5h-0.1v-0.1h3.2l0.4,1.1l-0.1,0.1c0,0-0.5-0.8-1.4-0.8h-0.5v1.7h0.7
			c0.4,0,0.6-0.3,0.6-0.6v-0.1h0.1v1.6h-0.1v-0.1c0-0.3-0.2-0.6-0.6-0.6h-0.7v1.8H91C91.9,108.3,92.5,107.3,92.5,107.3L92.5,107.3z
			 M77.5,107.2l0.6-1.5l0.6,1.5H77.5z M84.6,107.3c0,0-0.7,1-1.6,1h-0.7v-3.6c0-0.4,0.2-0.5,0.5-0.5h0.1v-0.1h-2.2v0.1h0.1
			c0.3,0,0.5,0.1,0.5,0.5v3.3c0,0.4-0.2,0.5-0.4,0.5c-0.2,0-0.4-0.1-0.6-0.4c0-0.1-1.8-4.1-1.8-4.1h-0.1l-1.7,4.1
			c-0.1,0.3-0.3,0.4-0.6,0.4c-0.3,0-0.4-0.1-0.4-0.5v-3.3c0-0.4,0.2-0.5,0.5-0.5h0.1v-0.1h-2.2v0.1h0.1c0.3,0,0.5,0.1,0.5,0.5v1.4
			H73v-1.4c0-0.4,0.2-0.5,0.5-0.5h0.1v-0.1h-2.2v0.1h0.1c0.3,0,0.5,0.1,0.5,0.5v3.3c0,0.4-0.2,0.5-0.5,0.5h-0.1v0.1h2.2v-0.1h-0.1
			c-0.3,0-0.5-0.1-0.5-0.5v-1.5h1.6v1.5c0,0.4-0.2,0.5-0.5,0.5h-0.1v0.1h3.4v-0.1h-0.1c-0.2,0-0.4-0.1-0.2-0.5l0.2-0.5h1.6l0.2,0.5
			c0.2,0.4,0,0.5-0.2,0.5h-0.1v0.1h5.4l0.6-1.3L84.6,107.3L84.6,107.3z M67.5,106c0,1.6,0.7,2.4,1.6,2.4c1.1,0,1.8-1.4,1.8-1.4
			l0.1,0l-0.4,1.8l-0.1,0c0,0,0-0.3-0.2-0.3c-0.2,0-0.6,0.3-1.2,0.3c-1.6,0-2.6-1.1-2.6-2.8s1-2.8,2.6-2.8c0.6,0,1,0.3,1.2,0.3
			s0.2-0.3,0.2-0.3l0.1,0l0.4,1.8l-0.1,0c0,0-0.7-1.4-1.8-1.4C68.2,103.5,67.5,104.4,67.5,106L67.5,106z M88.6,107.4l-0.6,1.3h-3.4
			v-0.1h0.1c0.3,0,0.5-0.1,0.5-0.5v-3.3c0-0.4-0.2-0.5-0.5-0.5h-0.1v-0.1h2.2v0.1h-0.1c-0.3,0-0.5,0.1-0.5,0.5v3.6H87
			c0.9,0,1.6-1,1.6-1L88.6,107.4z M81.8,97.2h0.6c0.7,0,1,0.3,1,0.8c0,0.9-1,1-1.5,1.4V97.2z M82.4,102.2L82.4,102.2
			c-0.3,0-0.5-0.1-0.5-0.5v-1.6l0,0c0-0.3,0.3-0.5,0.6-0.6c0.7,0,1,3.9,3.3,3.9c0.7,0,1.1-0.4,1.1-0.4l-0.1-0.1c0,0-0.3,0.2-0.7,0.2
			c-1.4,0-1.8-3.6-3.2-3.8c0.7-0.3,1.5-0.6,1.5-1.4c0-0.6-0.5-1.1-1.7-1.1h-2.5v0.1h0.1c0.3,0,0.5,0.1,0.5,0.5v4.3
			c0,0.4-0.2,0.5-0.5,0.5h-0.1v0.1L82.4,102.2L82.4,102.2L82.4,102.2z M94.9,99.3l0.6,1.5h-1.2L94.9,99.3L94.9,99.3z M92.9,102.2
			h-0.1v0.1h1.5v-0.1h-0.1c-0.2,0-0.4-0.1-0.2-0.5l0.2-0.5h1.5l0.2,0.5c0.2,0.4,0,0.5-0.2,0.5h-0.1v0.1h5.3l0.6-1.3l-0.1-0.1
			c0,0-0.7,1-1.5,1h-0.7v-3.5c0-0.4,0.2-0.5,0.5-0.5h0.1v-0.1h-2.1V98h0.1c0.3,0,0.5,0.1,0.5,0.5v3.3c0,0.4-0.2,0.5-0.4,0.5
			c-0.2,0-0.4-0.1-0.5-0.4c-0.1-0.2-1.8-4-1.8-4h-0.1l-1.7,4C93.4,102.1,93.2,102.2,92.9,102.2L92.9,102.2z M89.3,97.9h-0.1v-0.1
			h2.2v0.1h-0.1c-0.2,0-0.4,0.1-0.2,0.5l0.9,1.5c0,0,0.7-1.1,0.9-1.5c0.2-0.4,0-0.5-0.2-0.5h-0.1v-0.1h1.6v0.1h-0.1
			c-0.2,0-0.4,0.1-0.6,0.4l-1.2,2v1.3c0,0.4,0.2,0.5,0.4,0.5h0.1v0.1h-2.1v-0.1h0.1c0.3,0,0.4-0.1,0.4-0.5v-1.2l-1.2-2.1
			C89.7,98.1,89.6,97.9,89.3,97.9L89.3,97.9z M87.3,98.1c0.7,0,1.2,0.6,1.2,2c0,1.4-0.5,2-1.2,2c-0.7,0-1.2-0.6-1.2-2
			C86.1,98.7,86.6,98.1,87.3,98.1z M87.3,102.4c1.3,0,2.3-0.9,2.3-2.3s-1-2.3-2.3-2.3c-1.3,0-2.3,0.9-2.3,2.3S86,102.4,87.3,102.4z"
			/>
		<path class="st2" d="M92,23c-0.7-0.2-3.5-0.4-3.5-0.2c-0.1,0.3,0.6,0.3,2,1.4c0.4,0.3,0.9,0.5,1.5,0.4c0.4-0.1,0.6-0.2,0.9-0.5
			C93.7,23.5,93.1,23.4,92,23L92,23z M110,65.7c-0.5-0.1-3.6-1.3-4.3-1.7c-1.5-0.7-7-4.6-8.2-5.9c-1.4-1.4-3.7-2.5-3.9-2.3
			c0,0,2.6,2.7,2,5.4c-0.2,1-0.3,1.4,0.2,0.7c1-1.2,0.8-2.6,0.8-2.6c0.1,0.1,2.5,1.4,2.2,5.4c0,0.3,1.4-1.4,1.5-2.2
			c0.3,0,1.8,2.4,1.6,3.5c-0.1,0.8,0.5,0.3,0.8-0.2c0.2-0.3,0.3-0.7,0.4-0.9c0.1-0.3,0.1-0.3,0.5-0.2
			C105.1,65.1,108.4,65.5,110,65.7L110,65.7z M86.5,75.2c-0.5,4.5-4.6,6.9-4.7,7.1C81.8,82.3,89.2,81.2,86.5,75.2z M67.2,41.1
			c-0.3-3.2-6.3-6.7-4.3-14.3c-4.4,5.2-1.3,7.6,0.4,9.5c0.5,0.5,1,0.9,1.2,1.4c0.3,0.6-0.5,0.2-1,0.2c-3.2-0.1-3.8,2.5-3.5,2.6
			c0.2,0.1,2.9-3.5,6.5,0.2C66.8,41,67.3,41.7,67.2,41.1L67.2,41.1z M71.5,72.1c0.6,0,2.1,0,2.2-0.4c0.1-0.3-0.2-0.8-0.4-0.9
			c-0.4-0.1-3.4,0.9-6.1-0.5c-1-0.5-2-1.4-2.1-1.4C64.9,69,66.1,72.2,71.5,72.1L71.5,72.1z M62.8,68c-0.3-1.3-0.1-1.9-0.4-2.4
			c-0.3-0.3-0.7-0.7-1.4-0.7c-2.4,0-2.2,1.4-2.1,0.7c0-0.9,0.6-3.2,3.5-2.9c0.5,0.1,0.7-1.5,0.5-2c-1.2-3-3.4-0.8-3.6,0.6
			c-0.4,0.2-0.8-2.2-0.3-3.5c0.7-2.2,3.1-3.4,5.2-0.8c0.9-2,4.4-12.4,1.2-15.4c-1.2-1.1-3.2-1-4.4,0c-1,0.8-1.1,2.4-1.4,2.4
			c-0.5,0-2.3-2.3-2.1-4.3c0.3-2.8,3.2-3.1,3.3-3.3c0.2-0.3-0.3-0.5-0.5-0.8c-1.7-1.7-2-5.2,0.1-7.5c4.5-5,3.1-5.8,3.7-5.6
			c0.3,0.1,1.3,1.3,1.5,2.6c0.6,3.5-1.7,4.1,0,8.5c-0.1-0.3,0.1-3,2-4.8c0.9-0.9,3.7-1.9,4-1.5c0,0.6-3.6,1-1.2,8.8
			c1,3.3,0.9,9.6-1.7,16.1c-0.1,0.2,0.3-0.1,0.8-0.1c1.9,0,2.7,1.2,2.6,2.9c-0.1,0.8-0.3,0.3-1,0.1c-5.4-0.8-5.8,5.7-5.9,8.5
			c-0.1,2.8,0.4,6.3,9.2,5.2c0.5-0.1,1,3.4,1,3.7c0,0.5-0.3,0.7-0.8,0.7C67,74.5,63.4,70.7,62.8,68L62.8,68z M105,48.3
			c0.8,0.7,1.1,1.9,1.3,2.9c1.1,4,4.6,4.1,4.6,3.9c0-0.1-1.9-1-1.8-4.6c0.1-1.6-1-3.4-2.5-4.3c-3.9-2.3-9-1.1-11.2-1.7
			c2.2,2.6,4.1,6.4,5.4,7.4c1.2,1,2.3,1.4,5.2,3.9c-0.1-0.1-1.2-5.4-2.6-7.1c-0.1-0.2-1.3-1.5-1.4-1.5C103,47,104.4,47.8,105,48.3
			L105,48.3z M114.7,30.6c0-0.3-1.2,2.3-5.6,7.2c-0.2,0.2,0.2,1.2,0.7,1.8c0.1,0.2,0.6,0.7,0.8,0.6c0.1-0.1-0.1-1.5,1.5-3.8
			C113.2,34.8,114.4,32.6,114.7,30.6L114.7,30.6z M125.5,27.2c0,0.1,0,0.2-0.3,0.1c-0.5-0.1-1.1-0.4-1.6,0c-0.5,0.4-0.6,1-1.3,1.3
			c-1.1,0.5-2.8,0.1-3.5,1.3c-0.3,0.5-0.3,1.4,0.4,1.5c0.6,0.1,1.8-0.9,3.1,0.7c0.1,0.1,1.5-0.7,1.6-0.5c0.1,0.3-0.7,1.7-1,2.2
			c-1.5,2.5-3.5,1.9-4.4,1.6c-0.9-0.3-1.7-0.4-2.3,0.6c-0.9,1.5-0.7,3.1-1,4.7c-0.1,0.4-0.5,2.5-0.9,2.4c-0.4-0.1-0.9-2.5-1.3-2.4
			c-0.1,0,0.3,2.7-0.9,3.9c-0.1,0.1-0.9-2.7-3.7-3.1c-0.1-1.2-0.6-1.8-1.9-3c0.8-0.9,2-2.4,2.8-3.3c1.5-1.8,3.3-3.5,4.1-5.8
			c0.7-1.9,1-3.9,2.2-5.6c0.6-0.8,2.8-2.8,5.6-2c0.3,0.1,2.2-0.3,2.4,0.9c0,0.1-0.7,0-1.2,0.3c-0.5,0.3-0.7,1-0.8,1
			c-2.9-0.3-2.9,2.4-2.6,2.1c0.7-0.7,2.6-1.9,5.1-0.5C125.1,26.1,125.5,27,125.5,27.2z M84.1,19.3c5.3-2,9.5,0.1,9.5,0.1
			C88.5,15.7,84.1,19.3,84.1,19.3z M88.4,14c0,0.4,0.2,0.7,0.4,0.7c0.2,0,0.4-0.3,0.4-0.7c0-0.4-0.2-0.7-0.4-0.7
			C88.6,13.2,88.4,13.5,88.4,14z M98.2,15.8c-1,0.2-1.1,0.8-1.3,1.4c-0.3,1.2-0.8,1.2-1,1.3c-1.7,0.3-1.1,1.6-1.1,1.7c0,0,0,0-0.1,0
			c-0.2,0.1-0.7,0.7-0.8,1.1c-0.1-0.1-5.4-2.7-10.1,0c0,0-0.1-0.5-0.9-1.1c0,0,0.6-1.4-1.1-1.7c-0.3-0.1-0.7-0.1-1-1.3
			c-0.2-0.6-0.3-1.2-1.3-1.4c0,0,0.5-0.6,1.8-0.1l0.7-0.6l0.1,0.9l0.9-0.2l-0.3,1l0.9,0.2l-0.6,0.6c0,0,1.8,0.9,1.6-1.3l-0.7,0.4
			c0,0-0.6-0.8-0.7-1.6c0,0,0.9,0,0.9,0l-0.8-1c0,0,1.1-0.6,1.9-0.6c0,0,0.1,1.2,0.1,1.2l0.8-0.7c0,0,0.4,1,0.5,1.8c-0.1,0-1,0-1,0
			s1.4,2.2,2.4,0c0,0-0.6,0.1-1.1-0.5c0,0,0-0.3,0.4-0.5c-0.3-0.1-0.6-0.5-0.6-0.7c0-0.1,0.2-0.3,0.5-0.3c-0.1,0-0.4-0.4-0.4-0.9
			c0,0,0.3-0.1,0.8,0.1c0,0-0.2-0.3-0.3-1.1c0,0,0.4-0.1,0.9,0c0.1,0,0.1-0.4,0.5-0.9c0,0,0-0.1,0.1-0.1c0.1-0.1,0.1-0.1,0.1-0.2
			l0,0l0,0c0,0,0.1,0.1,0.2,0.3c0.4,0.5,0.4,0.9,0.5,0.9c0.5-0.1,0.9-0.1,0.9,0c0,0.9-0.3,1.1-0.3,1.1c0.6-0.2,0.8,0,0.8-0.1
			c-0.1,0.5-0.4,0.9-0.4,0.9c0.3,0.1,0.5,0.2,0.5,0.3c0,0.2-0.3,0.5-0.6,0.7c0.3,0.2,0.4,0.5,0.4,0.5c-0.5,0.6-1,0.4-1.1,0.5
			c1,2.2,2.4,0,2.4,0s-0.9,0-1,0c0.1-0.8,0.5-1.8,0.5-1.8l0.8,0.7c0,0,0.1-1.2,0.1-1.2c0.8,0,1.9,0.6,1.9,0.6l-0.8,1
			c0,0,0.9,0.1,0.9,0c-0.1,0.8-0.7,1.6-0.7,1.6L93,16.1c-0.2,2.2,1.6,1.3,1.6,1.3L94,16.9l0.9-0.2l-0.4-1l0.9,0.2l0.1-0.9l0.7,0.6
			C97.6,15.2,98.1,15.8,98.2,15.8L98.2,15.8z M77.9,38.7c0.4-0.3,0.8-0.4,0.3,0.4c-1.7,3.1-2.6,6.4,0.3,10.3c0.1,0.1,0.1,0.1,0.1,0
			c0.2-0.9,0.9-3.5,3.9-5.7c0.3-0.2,2-1.5,2-1.5c0.3,0.1-0.2,1.1,1.6,2.7c0.5,0.4,0.3-0.2,0.6-0.7c0.6-0.8,1.9-2.3,2.4-3.3
			c0.1-0.2,1,0.8,1.4,2.5c0.5-2.4,0-3.3-1.2-4.2c-0.3-0.2-0.1,0.9-2.9,3.5c-1.2-1.4-0.8-4-1-4.1c0.1,0-1.2,2-2.9,2.8
			c-2.5,1.2-2.9,2.2-3,2c-0.9-1.6,0.1-3,0.5-4.2c0.3-0.7,2.1-4.1,1.9-4.4c-0.3,0.3-3.3,1.8-3.3,1.4c0.5-4.3,3.5-4,3.9-7
			c0-0.1-1.4,0.9-1.6,1c-0.8,0.5-0.9,0.6-0.7-0.3c0.5-2,2.4-3.4,2.2-3.4c-3.9,0.3-2.9,4.2-6.8,5.5c0.1,0.4,1.2,0.3,1.5,0.2
			c0.3,0,1.1,0,1.4,0c-2.8,3.1-1.6,5.4-3.1,7.6C75.4,40,77.2,39.2,77.9,38.7L77.9,38.7z M81.2,25.2c1.1,0.1,2.4-0.9,2-0.9
			c-2.8-0.3-4.7-2.5-4.7-2.5c-0.2,0,0.2,1.1,0.2,1.3C79,24.4,79.7,25.1,81.2,25.2L81.2,25.2z M87.7,35.5c0.1,0,0.1,0,0.2-0.1
			c0.1-0.3-0.6-0.7,0.3-2.9c0.4-1,0.4-1.9,0.4-2.9c0-1.3,1-2.5,1-2.5c-0.2-0.2-2.2,1.6-2.2,2.9c0,0.7,0.1,1.1-0.3,1.6
			C85,34.7,87.5,35.5,87.7,35.5z M71.8,40c3.5,0.2,2.4-3.1,3.1-4.8c0.3-0.7,1-1.3,1.2-1.8c-0.5,0.1-3.9,0.8-3.5-3.1
			c0-0.2,1.1,0.9,2.5,0.6c2.9-0.8,2.5-3.7,4.6-5c-2.4-0.9-1.3-3-2.6-4.7c-0.3-0.5-1-0.6-1.1-0.7c0-0.1,3.7-0.8,6.2,1.4
			c0.9,0.9,0.6,1,1.4,0.3c2.9-2.6,10.7-1.7,11.5,1.1c0.3,0.2,2.6,0.6,3.5,0.6c0.6,0,1.7,0.2,1.5,1c-0.4,1.8-1.6,1.7-1.5,2.1
			c0.3,1.4-0.7,3.4-0.9,3.3c-0.2-0.1-0.2-0.8-0.3-0.9c-1.4-0.9-3.9-1.2-5.2-2.5c-1.4,0.7-1.3,3-1.3,3.7c-0.1,2.2-0.8,2.4-0.6,2.6
			c0.6,0.8,1.6,1.1,2.8,1.2c1.2,0,1,0.3,2.2,0.2c0.5-0.1,1.2-0.7,1.3-0.7c0.1,0.1,0,1-0.4,1.6c-0.4,0.7-1.2,0.9-2.1,0.8
			c-1.3-0.1-3.5-0.4-4.3,1.1c-0.5,1,0.2,0.5,1.4,0.1c3.5-1.3,4.4,2.7,9.3-1.6c0,0,0.1,0,0.1,0c0,0.7,0.3,2.6-2.3,3.7
			c-1.3,0.6-3.9,0.3-4.6,0.9c3.7,1.7,6.9-0.8,9-0.9c1.5-0.1,3.8,0.6,4.1,2.3c-0.4-0.5-2-0.6-2.7-0.3c-7.4,2.9-9.7,0.3-10.2,0.7
			c-0.6,0.4-0.7,1.7-0.4,2.3c0.5,1.2,1.7,2.6,2.4,5.4c-2.4-2.1-5.3-2.3-5.9-4.5c-0.2-0.6-0.2-1.6-0.4-2.1c0,0-0.5,1-0.6,1.6
			c-0.4,1.8,2.2,3.3,2.2,7.4c-5.4-2.4-5.4-5.1-5.3-5.8c0-0.1-0.1-0.1-0.1,0c-0.3,0.4-0.8,1.7,0.2,4.9c0.7,2.2-0.3,4.3-0.3,4.2
			c-0.1-1.7-2.3-3.5-3.1-5.8c-0.8-2.3,0.7-3.9,0.6-4.1c-0.1-0.2-2.7,1.2-2.2,4.5c0.3,2.2,1.9,2.9,2.5,4.7s0.3,4.8-4,5.7
			c-0.5,0.1-0.2-0.2,0.1-0.5c1.3-1.7-0.1-4.6-0.5-4.8c-0.2-0.1-1,0.9-2.7,0.9c-2.3-0.1-3-2.3-2.7-2.3c3.7,0.2,3-3.7,2.7-3.5
			c-0.2,0.3-3.4,1.7-4.2-0.6c0-0.1,0-0.2,0.1-0.2c3.7-0.1,2.3-3.8,2.2-5.1c-0.2-2.1,1.1-3,1-3.3c-0.1-0.1-3.9,0.8-3.8-1.3L71.8,40z
			 M114.3,50.9c0.9-0.3,1.3-0.7,1.6-1c0,0,0-0.1,0-0.1c-0.5,0-2.5-0.2-3.8-2.6c-1.2-2.2-3.1-4.3-5.8-4.3c-1.2,0-3.9,0.7-3.8,0.8
			c0.1,0.2,4.5,0.1,6.4,2.7C110.3,48.4,111.3,51.8,114.3,50.9L114.3,50.9z M94.4,30.3c-1.2-1-2.5-0.4-3.1,1.1
			c-0.2,0.5-0.1,0.4,0.1,0.4c1.4-0.4,2-0.1,2.8,0.3c2,0.9,3.4,0.5,4.2-1C97.8,31.1,96.9,32.3,94.4,30.3z M123.3,67.1
			c-0.5-0.2-0.4-1.1-1.1-1.2c-0.6-0.1-1.2,0.7-1.8,0.4c-1.8-0.8-3.4-0.4-3.8,0c0.3,0.2,2,0.7,2.4,0.9c0.8,0.5,1.3,1.5,0.8,2.9
			c-0.2,0.7,0,1.1-0.5,1.8c-0.6,0.8-0.7,0.5-0.5-0.2c0-0.2-0.2-0.3-0.5-0.9c-0.2-0.4-2.6,0.5-3.3-2.1c-0.6,0.4-3.8,2.2-6.8-1.4
			c-1.8-2.2-4.1,0.7-8.6,1.1c-0.2,0,1.1-1.3,0.7-2.9c-0.1-0.6-0.1-0.5-0.5-0.2c-0.7,0.5-2,1.1-2.9,1.1c-0.2,0,1.2-1.2,0.1-4.5
			c-0.1-0.2-1.2,1.8-3.3,1.8c0.3-1.7,0.4-2.7,0.1-3.4c-0.3-0.8-1.3-1.5-2.7-2.2l0,0c0.1,0.1,0.3,0.5,0.4,0.5
			c2.4,4.1-0.1,6.2,0.3,6.3c2.5,0.8,4.1-0.8,4.3-0.7c0.3,0.1-0.2,1.5-0.8,2.5c-0.9,1.5-2.2,2.3-3.9,3.1c-1.3,0.7-3.7,1.6-3.3,3.4
			c0.2,0.8,2.2,3.4,2.4,4.8c0.2,1.6-1.4,3.8-1.7,5.2c-0.1,0.5-0.1,1,0,1.4c-1-0.1-1.9-0.2-2.8-0.5c-0.2-0.4-0.3-0.8-0.4-1.3
			c0-0.4,0.1-0.7-0.2-0.5c-0.5,0.4-0.8,0.9-1,1.4c-2.5-0.8-4.8-2.2-6.7-3.9c3.7-3.3,2.8-8.6,2.7-9.8c-0.4-4.5,4.3-4.3,7-12.1
			c-2.1,4.2-10.4,6.1-9.4,12.5c0.5,3.1,0.9,5.4-1.3,8.4c-0.4-0.4-0.7-0.8-1-1.2c1.4-2.7,0.1-6.4,0.3-9.2c0.5-6.5,12.5-8.2,11.4-16.2
			c0-0.1,0.1-0.1,0.1-0.1c2,0.7,3.1,2.3,3.5,3.1c0.1,0.1,0.2,0.3,0.3,0.5c0.4-0.4,1.1-1.5,1.4-2.7c0.2-0.9,0.3-2.1,0-3.4
			c0-0.2,2.9,1.6,3.4,2.4c0.5,0.6,0.8,1.6,0.9,0.5c0.1-0.5,0.1-1.7,0-3.2c0.4,0.3,1,1.8,2.4,3.3c1.1,1.2,6.5,4.6,9.4,7.9
			c0.9,0.9,2.5,1.4,3.7,1c1.8-0.6,1.7-4.2,5.6-4.3c1.1-0.1,2.6-0.7,3.3,0.7c0.3,0.7-0.4,0.3-0.9,0.4c-0.7,0.1-1,0.4-1,1
			c0,1.6-2.4,2.7-2.4,3c0.6,0.2,3.3-1,4.6,0.3c0.3,0.3,0.3,0.7,0.5,1C124,66,123.4,67.1,123.3,67.1L123.3,67.1z M101,81.9
			c-0.9,0.6-1.8,1.1-2.8,1.5c-2.7,0.1-5.5,0.9-5.4,0.7c1.3-6.2-1.2-9.2-1.6-10c-1.3-3,3.8-2.9,6.7-4.8c0.4-0.3,0.5,0,0.8,0.5
			c0.5,0.9,1.7,3.3,3.6,4.6c2.3,1.6,3.7,1.7,4.6,1.3c-1.2,2-2.7,3.7-4.5,5.2c-5.8-1.1-7.1-2.7-7.2-2.1c0,0.6,0,2.9,0.3,3.1
			C95.8,81.9,98.5,81.5,101,81.9z"/>
		<path class="st4" d="M102.7,80.7c-11-2.2-11.3-7.2-11.4-7.6c0.1-0.9,2.1-1.8,3.9-1.9c0.3,0-0.2,3.6,9.8,7.3
			C104.3,79.3,103.5,80,102.7,80.7z M88.1,84.8c-0.5-0.1-1-0.1-1.4-0.3c-0.4-0.6-0.6-1.3-0.5-2c0.1-0.2,0.3-0.4,0.6-1.1
			c0.3-0.7,0.4-1.3,0.5-1.4C87.2,82.4,87.7,83.9,88.1,84.8L88.1,84.8z M61.1,64.8c-1.3-0.1-2,0.6-1.9,0.5c0.7-1.2,1.7-1.6,2.6-1.7
			c4.3-0.2,0.9,7.8,12.2,5.8c0.3-0.1-0.4,1-0.6,1.2c-0.3-0.1-1,0.1-2.1,0.2c-0.9,0-2.6,0.1-3.9-0.6C62.3,67.7,63.8,65,61.1,64.8
			L61.1,64.8z M69.4,73.2c-2.3-0.3-5.1-1.8-6-4c0.3,0.4,3.9,5.2,10.8,3.1c0.1-0.1,0.7,0.4,0.6,0.5C74.3,73,72.5,73.6,69.4,73.2
			L69.4,73.2z M88.7,11c0,0,0.7,1.3,0,2.1C88.7,13.1,88,12.5,88.7,11z M83.5,13.9c0,0,0.3-0.2,0.7-0.3c0,0,0.4,0.8,0.5,1.4
			c0,0-0.1-0.1-0.5-0.2C84.2,14.9,83.5,13.9,83.5,13.9L83.5,13.9z M92.8,15c0.1-0.7,0.5-1.4,0.5-1.4c0.3,0.1,0.7,0.3,0.7,0.3
			s-0.7,1-0.7,1C92.8,14.9,92.8,15,92.8,15L92.8,15z M93.1,17.3c-0.5-0.6-0.4-1.9-0.4-1.9s0.8,0.5,0.8,0.5c0.2-0.4,0.2-0.9,0.2-0.9
			l0.4,0c-0.1,0.6-0.5,1.3-0.5,1.3S93,16,93,16C92.8,16.5,93.1,17.3,93.1,17.3L93.1,17.3z M83.8,16.3c0,0-0.5-0.7-0.5-1.3l0.4,0
			c0,0,0,0.4,0.2,0.9c0,0,0.8-0.5,0.8-0.5s0.1,1.3-0.4,1.9c0,0,0.4-0.9,0.2-1.4C84.5,15.9,83.9,16.3,83.8,16.3L83.8,16.3z
			 M85.4,15.5l-0.2-0.3c0,0,1-0.1,1.1-0.1c0.1,0,0.1,0.3,0.1,0.3H85.4z M90.1,11.9c0,0.7-0.3,1.2-0.5,1.3c0.5-0.3,1-0.2,1-0.2
			s-0.9,0.8-0.9,0.8c0.7-0.1,1.2,0.1,1.2,0.1l-1.1,0.5c0.6,0.2,1,0.6,1,0.6s-0.7,0-1.2,0l0.1,1.1L88.9,15h0c0,0,0,0,0,0
			c1-1,0.1-1.9,0.1-1.9L90.1,11.9L90.1,11.9z M92.1,15.6h-1c0,0,0.1-0.3,0.1-0.3s1.1,0.1,1.1,0.1L92.1,15.6L92.1,15.6z M87.8,13.8
			c0,0-0.9-0.8-0.9-0.8s0.5-0.1,1,0.2c-0.1-0.1-0.5-0.7-0.5-1.3l1.1,1.2c0,0-0.9,0.9,0.1,1.9L88,16.1l0.1-1.1c-0.5,0-1.2,0-1.2,0
			s0.4-0.5,1-0.6L86.7,14C86.7,14,87.1,13.7,87.8,13.8L87.8,13.8z M85,15.9c2.1,2,3.4,0.4,3.8-0.5c0.7,1.3,2,2.2,3.8,0.4
			c-0.4,1.5,0.2,2,0.5,2.2c-2-0.9-5.2-1.6-8.5,0C84.8,17.9,85.3,17.3,85,15.9L85,15.9z M97.6,15.9c-0.7,0.1-0.8,0.5-1,1.1
			c-0.3,1-0.8,1.2-1.2,1.3c-1.3,0.3-1,1.6-1.1,1.5c-0.8-0.8-0.7-1.8-0.7-1.8c1.9,0.4,2.1-0.7,2.3-1.2C96.5,15.6,97.6,15.9,97.6,15.9
			z M82.1,18.3c-0.4-0.1-0.9-0.3-1.2-1.3c-0.2-0.7-0.3-1-1-1.1c0,0,1-0.3,1.7,1c0.2,0.5,0.4,1.6,2.3,1.2c0,0,0.1,0.9-0.7,1.8
			C83.1,19.8,83.4,18.6,82.1,18.3z M65.8,33.8c0-1.4,0.8-4.6,4.3-6c0.3-0.1-4.8,3.1-2.9,8.5C67.3,36.5,65.8,34,65.8,33.8z
			 M85.8,37.9c-2.4,3.5-4.2,2.7-6.1,5.1c-0.5-6,4.8-4.4,5.2-7.3c3.9,1.4,2.2,4.3,1.7,6.6C85.9,41.6,85.9,37.9,85.8,37.9L85.8,37.9z
			 M63,26.2c-6.3,6.7,0.3,9.4,1,11.6c-4-0.3-4.3,2-4.5,2.6c-1.1-2.6,3-3.4,2.1-3.9C59.8,35.4,57,30.3,63,26.2L63,26.2z M64.9,56.6
			c1.1-2.6,3.4-9.8,1.5-14.2c-1-2.5-5.7-2.8-7,0.9c0,0.1-0.2,0.1-0.2,0c-0.4-1.3,1.4-3.9,3.8-3.9c2.4,0,4.1,2,4.6,4.3
			C68,45.7,68,52,64.9,56.6L64.9,56.6z M59.2,60.9c-0.8-3.1,2.4-5.1,4-1.8c0.7,1.6,0.9,3,0.4,3C63.5,60.6,61.2,56.7,59.2,60.9
			L59.2,60.9z M118.6,24.3c0.3-1.4,2.1-1.6,2.5-1.6c0.4,0,1-1,2.4-0.2c0,0,0,0.1,0,0.1c-0.3,0-0.7-0.1-1,0.1c-0.5,0.2-0.8,0.8-1,1.1
			c-2.9-0.3-2.5,2.1-2.6,2.1C118.7,25.9,118.3,25.6,118.6,24.3L118.6,24.3z M125.1,27.1c-0.9-0.3-1.4-0.3-1.8,0
			c-0.4,0.3-0.9,1.1-1.2,1.3c-0.9,0.5-4.4-0.1-3.7,2.8c-0.4,0.2-2.9-3.6,4.3-4.5C123.1,26.2,124.3,25.7,125.1,27.1L125.1,27.1z
			 M122.9,33c-0.5,0.8-0.9,2.4-3.3,2.4c-1.5,0-2.4-1-3.5,0.1c0.2-0.7,0.5-1.2,1.7-1.4c2.1,0.9,4.3-0.4,4.4-1.5
			c0-0.1,1.4-0.8,1.4-0.8C123.7,32,123.1,32.7,122.9,33z M108.9,37.6c0.1-0.4,0.4-1.4,0.4-1.5c1-1.2,4.4-5,5.6-7.1c0,0,0.1,0,0.1,0
			C114.2,31.5,109.6,36.7,108.9,37.6C108.9,37.6,108.9,37.6,108.9,37.6L108.9,37.6z M116.2,32c-1.4,3.9-1.2,9.4-1.9,10.7
			c-0.4-0.3-0.9-2.1-1.3-2.6C113.3,39.6,113.2,35.7,116.2,32z M106.9,38.6c-0.1,0,0-0.1,0.1-0.1c0.4,0.1,1.2,0.3,2,2.2
			c0.2,0.4,3.7-1.2,3,3.3c0,0-0.1,0-0.1,0c-0.8-2.3-3.5-2.6-3.5-2.7C108.4,40.3,107.5,39.1,106.9,38.6z M71.9,40.3
			c0,0,1.7,1.4,5.5-0.8c-0.1,0.1-1.7,1.6-1.8,1.6C74.9,41.4,72.6,41.9,71.9,40.3L71.9,40.3z M76.2,47.6c0.8,0.9,1.8,2.8,1.5,4.4
			c-0.2,1.2-0.9,2.1-2.1,2.2c0.7-0.3,2.2-2.7,0.8-4.3c-0.1-0.1-2.3,2.4-4,0.2C75.7,50.5,76.2,47.6,76.2,47.6L76.2,47.6z M85.5,54.9
			c0.1-0.3-2.1-3.1-2.6-4.3c-1-2.2,0.1-4.5,0.6-5c0.1-0.1,0.6-0.5,0.5-0.5c-1.7,0.1-5.1,4.2-5.3,4.5c0.4-3,4.7-6.2,5.4-7
			c0.1-0.1,0.1,2.4,0.1,2.4c0,0,1.4,1.6,1.4,1.7c-0.4,0.1-1.1,0.2-1.2,0.3C82.7,49.2,86.5,52.5,85.5,54.9L85.5,54.9z M87,49.6
			c-1.5-1.8-0.9-2.9-0.9-2.9s3.4,3.8,4.7,5.4C89.8,52.2,87.3,50,87,49.6L87,49.6z M91,61.2c-0.7,5-6.7,6.9-7.1,10.5
			c-0.7,6.3-3.6,7.7-4.6,7.9c2.6-3.4,2.1-7.1,2-8.6c-0.1-1.2-0.1-2.2,0.4-2.9c1.2-1.8,5.8-5.4,6.5-10.6c-1.3,3.9-9.2,6.2-10.3,11.1
			c-0.9-6.4,10.3-6.3,10.3-15C88.2,53.6,91.8,56,91,61.2L91,61.2z M88.2,73.8c-0.2,0.1-1.3-1.4-1.3-1.6c0-2.5,2.4-2.9,4.5-3.4
			c3.7-0.9,4-2.9,4.8-3.9c-0.1,1.1-1.2,3.7-4.6,5C86.6,71.6,88.1,73.8,88.2,73.8L88.2,73.8z M91.2,47c-0.7-0.6-1-0.9-1.2-1.6
			c0-0.1-0.1-0.2-0.1-0.3c-0.1-0.3-0.1-0.7-0.2-1c0-0.2-0.1-0.5-0.1-0.7c0,0-0.1,0-0.1,0c-0.8,0.8-0.9,2-0.9,1.8
			c-0.5-1.2,0.4-4.1,0.7-4.1c0.1,0,0.4,1.9,0.4,1.9c0,0.1,5.3,6.3,5.6,6.5C94.2,48.8,92.3,47.9,91.2,47L91.2,47z M94.2,63.6
			c0.1-0.7,1.8-4.1-2.6-5.4c3.9,0.9,3.6,2.7,3.6,4.2C95.2,62.7,94.2,63.7,94.2,63.6L94.2,63.6z M79.5,60.6c0.4-0.3,1.6-2.4-0.3-5.5
			c-0.3,0.1-1.5,1-2.7,1c-1.4,0-2.7-1-2.7-1.8c1.8,2.1,5.2,0.9,5.9-2C79.7,52.2,85.1,57.6,79.5,60.6z M111,65.5
			c-0.2,0-0.3-0.1-0.5-0.1C110.7,65.4,110.8,65.5,111,65.5z M111,65.5c-0.2,0-0.3-0.1-0.5-0.1C110.7,65.4,110.8,65.5,111,65.5z
			 M100.6,60.4c-3.1-2.3-4.8-4.8-8.1-5c1.4-1.6,1-3.4,1-4.6c0.8,0.4,9.9,12.4,17,14.5C105.8,64.1,103,62.1,100.6,60.4L100.6,60.4z
			 M117,62.5c0.1-2.1,2.2-1.4,2.2-3.5c0.2-0.7,1.3-1.4,2.4-0.6c0,0,0,0.1,0,0.1c-1.5,0-1.8,0.6-1.8,1.1
			C119.7,61.6,117.1,62.1,117,62.5L117,62.5z M75.4,31.7c3.6-2.5,2.4-3.8,4.3-5.7c0.9,0.2,1.9,0.1,3.1,0.1c-0.2,0.2-2.4-0.6-4.2,3
			C77.7,31,75,31.9,75.4,31.7z M88.6,20.9c-2.7,0.5-3.1,1-3.5,1.2c-0.1,0.1-0.1,2.3-0.5,2.6l0,0c-0.2-0.3-1.1-1.8-1.6-2
			C83.4,22.4,85,21,88.6,20.9z M95.8,35.5c-1.4,1.7-5.5-1-6.5,2.2c0,0.1-2.4-3.3-0.5-5.3c0,0,0.6,2.2,0.6,2.2
			c0.1,0.4,5.1,0.9,5.6,0.8c0.2-0.1,1.1-1.2,1.2-1.3C96.3,34.1,96.2,35,95.8,35.5L95.8,35.5z M72.6,30.6c1.6,2.8,3.7,1.9,5.2,1.8
			c0,0.1-1.4,0.5-1.6,0.8C75.1,33.4,72.6,33.8,72.6,30.6L72.6,30.6z M100.3,36.4c0.1,2.4-2.5,3.7-4.2,3.6c-1-0.1-2.1,0.1-2.8,0.5
			C93,36.8,97.7,41.1,100.3,36.4L100.3,36.4z M102.2,40.7c1.6-0.5,4.1,0.7,4.1,1c-2.4-1-5.6,2.5-11.3,1c-0.5-0.1-0.9-0.5-1.5-0.4
			C95.3,41.1,94.3,43.1,102.2,40.7z M97.5,29.8c-0.1-1.5-3.4-1.1-5.3-2.9c-0.3-0.3-1.6,0.9-1.6,2.3c-0.5-0.9-0.6-1.7-0.7-2.9
			c0-0.1-0.8-1-2-1.3c1.3-0.2,1.6,0.5,3.9,1.2c0.1,0.1,1.8-0.6,1.8-0.5c0,0.2,1.9,2.4,2.2,2.5c2.3,0.7,2.4-1,2.5-0.9
			C98.3,27.5,98,30,97.5,29.8z M98,24.7c1,0.8,1.5-0.1,1.5,0c-0.2,1.3-1.4,2-1.4,2c-1.1-0.2-1.5-2.3-1.4-2.3
			C97.4,24.7,97.9,24.6,98,24.7L98,24.7z M83.9,27c0.2,0,0.5,1.8-1,3c0.1-0.2,0.2-1.1,0.2-1.3c0.1-0.5-1.9,1.1-2.6,1.5
			C81.5,26.4,83.9,27,83.9,27z M85.7,29.9c-0.3,2.4-1.4,3.3-3.6,4.5c0,0-2.7,1.5-2.9,1.5C79.1,32.2,85.2,31.6,85.7,29.9z
			 M106.4,47.1c2.9,2.5,0.6,5.6,3.4,7.8c-4.2-1.3-2.8-5-4.8-6.7c-2-1.7-4.8-1-4.8-1S103.5,44.6,106.4,47.1z M110.6,46.6
			c0.7,1.1,1.4,3.9,5,3.5c-0.5,0.2-3.4,2.8-6-2.7c-1.5-3.1-5.8-3.4-6.8-3.5C107.8,42.8,109.4,44.6,110.6,46.6L110.6,46.6z
			 M123.2,66.9C123.2,66.9,123.2,66.9,123.2,66.9c-0.9-2.2-2.1-0.6-2.7-0.9c-1-0.5-3.4-0.5-3.9-0.1c0.1-1.4,2.9-1.9,5-1.2
			C122.1,64.8,123.5,65.4,123.2,66.9z M100.1,47.3c0,0.1,5,7.4,5.2,7.9c-2.4-2-2.9-2.1-4.4-3.4c-1.8-1.7-2.6-4.3-5-6.8
			C96.1,45,100.2,47.1,100.1,47.3L100.1,47.3z M119.3,70.5c0,0.5,0.5,0.8-0.1,1.7c0,0-0.1,0-0.1,0c0.1-0.6-0.3-0.9-0.6-1.4
			c-1.8-0.2-2.8-0.7-3.1-2.4c-3.9,2.6-6.4-1.2-7.6-1.6c-0.1-0.1,4.6,1.8,7.9-0.1C116.7,69.2,118.9,68.1,119.3,70.5L119.3,70.5z
			 M116.7,22.8C116.7,22.8,116.7,22.8,116.7,22.8L116.7,22.8L116.7,22.8L116.7,22.8z M116.7,22.8C116.7,22.8,116.7,22.8,116.7,22.8
			C116.7,22.8,116.7,22.8,116.7,22.8z M94.6,20.3c0,0-0.8,0.7-0.9,1.1c-0.1-0.1-5.4-2.7-10,0c0,0-0.1-0.5-0.9-1.1
			c0,0,0.5-0.3,1.6,0.1c0,0,4-1.8,8.7,0.1C93.1,20.5,93.9,20,94.6,20.3L94.6,20.3z M116.6,22.8C116.6,22.8,116.6,22.8,116.6,22.8
			L116.6,22.8L116.6,22.8L116.6,22.8z M116.7,22.8C116.7,22.8,116.7,22.8,116.7,22.8C116.6,22.8,116.6,22.8,116.7,22.8z M94.8,31.4
			c-0.6-0.4-1.2-0.8-1.9-0.8c-1.2,0-1.4,0.9-1.4,0.9c3-1.6,2.9,2.5,6.4-0.1C98,31.3,96.5,32.5,94.8,31.4L94.8,31.4z M91.8,24.7
			L91.8,24.7C91.8,24.7,91.8,24.7,91.8,24.7c0.1,0,0.1,0,0.1,0c0.3-0.1,0.5-0.2,0.9-0.5c0.9-0.6,0.2-0.7-0.9-1.1
			c-0.7-0.2-3.5-0.4-3.5-0.2v0h0c-0.3,0.1-2-0.2-2.5-0.2c1-0.4,6-2,8.2,0.4C94,23.2,93.6,25.1,91.8,24.7L91.8,24.7z"/>
	</g>
</g>
</svg>
